<svg width="229" height="162" viewBox="0 0 229 162" fill="none" xmlns="http://www.w3.org/2000/svg">
<mask id="path-1-inside-1_691_438" fill="white">
<path d="M67.8822 12.9413L2.82843 77.9951C1.26633 79.5572 1.26633 82.0898 2.82843 83.6519L67.8822 148.706C69.4443 150.268 71.977 150.268 73.5391 148.706L76.9255 145.319C78.4876 143.757 78.4876 141.225 76.9255 139.663L20.9151 83.6521C19.353 82.09 19.353 79.5574 20.9151 77.9953L76.9257 21.9847C78.4878 20.4226 78.4878 17.8899 76.9257 16.3278L73.5391 12.9413C71.977 11.3792 69.4443 11.3792 67.8822 12.9413Z"/>
</mask>
<path d="M19.799 94.9657L84.8528 29.9118L50.9117 -4.0293L-14.1421 61.0245L19.799 94.9657ZM84.8528 131.735L19.799 66.6814L-14.1421 100.623L50.9117 165.676L84.8528 131.735ZM56.5685 29.9118L59.9551 33.2984L93.8962 -0.642744L90.5097 -4.0293L56.5685 29.9118ZM59.9551 5.01411L3.9445 61.0247L37.8856 94.9658L93.8962 38.9552L59.9551 5.01411ZM3.9445 100.623L59.9549 156.633L93.896 122.692L37.8856 66.6816L3.9445 100.623ZM59.9549 128.349L56.5685 131.735L90.5097 165.676L93.896 162.29L59.9549 128.349ZM59.9549 156.633C52.1444 148.823 52.1444 136.159 59.9549 128.349L93.896 162.29C104.831 151.355 104.831 133.627 93.896 122.692L59.9549 156.633ZM3.9445 61.0247C-6.99017 71.9594 -6.99019 89.688 3.9445 100.623L37.8856 66.6816C45.6961 74.4921 45.6961 87.1553 37.8856 94.9658L3.9445 61.0247ZM59.9551 33.2984C52.1446 25.4879 52.1446 12.8246 59.9551 5.01411L93.8962 38.9552C104.831 28.0206 104.831 10.2919 93.8962 -0.642744L59.9551 33.2984ZM50.9117 165.676C61.8464 176.611 79.575 176.611 90.5097 165.676L56.5685 131.735C64.379 123.925 77.0423 123.925 84.8528 131.735L50.9117 165.676ZM84.8528 29.9118C77.0423 37.7223 64.379 37.7223 56.5685 29.9118L90.5097 -4.0293C79.575 -14.964 61.8464 -14.964 50.9117 -4.0293L84.8528 29.9118ZM-14.1421 61.0245C-25.0768 71.9592 -25.0768 89.6878 -14.1421 100.623L19.799 66.6814C27.6095 74.4919 27.6095 87.1552 19.799 94.9657L-14.1421 61.0245Z" fill="black" mask="url(#path-1-inside-1_691_438)"/>
<mask id="path-3-inside-2_691_438" fill="white">
<path d="M128.309 3.8637L87.9337 154.548C87.3619 156.682 88.6283 158.875 90.7621 159.447L95.1088 160.612C97.2427 161.184 99.436 159.917 100.008 157.783L140.384 7.09894C140.955 4.96508 139.689 2.77173 137.555 2.19996L133.208 1.03528C131.075 0.463509 128.881 1.72984 128.309 3.8637Z"/>
</mask>
<path d="M111.116 160.76L151.492 10.0754L105.127 -2.34795L64.7515 148.336L111.116 160.76ZM101.32 137.43L96.9738 136.265L84.5505 182.629L88.8971 183.794L101.32 137.43ZM126.997 24.2175L131.343 25.3822L143.767 -20.9823L139.42 -22.1469L126.997 24.2175ZM117.201 0.887284L76.8256 151.572L123.19 163.995L163.566 13.3106L117.201 0.887284ZM131.343 25.3822C120.674 22.5233 114.342 11.5566 117.201 0.887284L163.566 13.3106C167.568 -1.62644 158.704 -16.9799 143.767 -20.9823L131.343 25.3822ZM88.8971 183.794C103.834 187.796 119.188 178.932 123.19 163.995L76.8256 151.572C79.6844 140.902 90.6512 134.571 101.32 137.43L88.8971 183.794ZM151.492 10.0754C148.633 20.7447 137.666 27.0763 126.997 24.2175L139.42 -22.1469C124.483 -26.1493 109.13 -17.285 105.127 -2.34795L151.492 10.0754ZM64.7515 148.336C60.7491 163.273 69.6134 178.627 84.5505 182.629L96.9738 136.265C107.643 139.124 113.975 150.09 111.116 160.76L64.7515 148.336Z" fill="black" mask="url(#path-3-inside-2_691_438)"/>
<mask id="path-5-inside-3_691_438" fill="white">
<path d="M160.438 148.706L225.492 83.6519C227.054 82.0898 227.054 79.5572 225.492 77.9951L160.438 12.9413C158.876 11.3792 156.343 11.3792 154.781 12.9413L151.395 16.3276C149.833 17.8897 149.833 20.4224 151.395 21.9845L207.405 77.9949C208.967 79.557 208.967 82.0897 207.405 83.6518L151.395 139.662C149.833 141.224 149.833 143.757 151.395 145.319L154.781 148.706C156.343 150.268 158.876 150.268 160.438 148.706Z"/>
</mask>
<path d="M208.521 66.6814L143.468 131.735L177.409 165.676L242.462 100.623L208.521 66.6814ZM143.468 29.9118L208.521 94.9657L242.462 61.0245L177.409 -4.0293L143.468 29.9118ZM171.752 131.735L168.365 128.349L134.424 162.29L137.811 165.676L171.752 131.735ZM168.365 156.633L224.376 100.622L190.435 66.6812L134.424 122.692L168.365 156.633ZM224.376 61.0244L168.365 5.01394L134.424 38.9551L190.435 94.9655L224.376 61.0244ZM168.365 33.2982L171.752 29.9118L137.811 -4.0293L134.424 -0.642917L168.365 33.2982ZM168.365 5.01394C176.176 12.8244 176.176 25.4877 168.365 33.2982L134.424 -0.642917C123.49 10.2918 123.49 28.0204 134.424 38.9551L168.365 5.01394ZM224.376 100.622C235.31 89.6877 235.311 71.959 224.376 61.0244L190.435 94.9655C182.624 87.155 182.624 74.4917 190.435 66.6812L224.376 100.622ZM168.365 128.349C176.176 136.159 176.176 148.822 168.365 156.633L134.424 122.692C123.489 133.626 123.489 151.355 134.424 162.29L168.365 128.349ZM177.409 -4.0293C166.474 -14.964 148.745 -14.964 137.811 -4.0293L171.752 29.9118C163.941 37.7223 151.278 37.7223 143.468 29.9118L177.409 -4.0293ZM143.468 131.735C151.278 123.925 163.941 123.925 171.752 131.735L137.811 165.676C148.745 176.611 166.474 176.611 177.409 165.676L143.468 131.735ZM242.462 100.623C253.397 89.6878 253.397 71.9592 242.462 61.0245L208.521 94.9657C200.711 87.1552 200.711 74.4919 208.521 66.6814L242.462 100.623Z" fill="black" mask="url(#path-5-inside-3_691_438)"/>
</svg>
